<?xml version="1.0" standalone="no"?>
<!DOCTYPE svg PUBLIC "-//W3C//DTD SVG 20010904//EN"
 "http://www.w3.org/TR/2001/REC-SVG-20010904/DTD/svg10.dtd">
<svg version="1.0" xmlns="http://www.w3.org/2000/svg"
 width="96.000000pt" height="96.000000pt" viewBox="0 0 96.000000 96.000000"
 preserveAspectRatio="xMidYMid meet">
<metadata>
Created by potrace 1.11, written by Peter Selinger 2001-2013
</metadata>
<g transform="translate(0.000000,96.000000) scale(0.100000,-0.100000)"
fill="#000000" stroke="none">
<path d="M387 870 c-128 -33 -237 -132 -285 -260 -31 -86 -26 -205 14 -290 45
-93 102 -153 187 -195 204 -101 433 -22 534 183 36 72 38 81 38 171 0 87 -3
102 -31 161 -69 144 -191 229 -340 236 -44 2 -96 -1 -117 -6z m149 -99 c-4
-36 0 -41 45 -69 49 -29 86 -105 57 -114 -22 -8 -68 4 -68 18 0 26 -42 54 -83
54 -61 0 -97 -24 -97 -66 0 -31 27 -50 117 -79 121 -40 165 -93 149 -180 -7
-37 -52 -81 -92 -91 -25 -6 -27 -11 -26 -57 1 -26 -1 -27 -54 -27 l-54 0 0 39
c0 33 -4 40 -24 45 -35 9 -81 50 -96 86 -7 17 -10 33 -7 36 10 10 71 7 75 -4
12 -37 41 -55 93 -60 45 -3 59 0 82 18 59 47 24 95 -99 134 -87 28 -129 61
-143 112 -16 59 22 124 85 144 31 11 34 15 34 51 l0 39 55 0 c54 0 55 0 51
-29z"/>
</g>
</svg>
